<?xml version="1.0" encoding="UTF-8" standalone="no"?>
<!DOCTYPE svg PUBLIC "-//W3C//DTD SVG 1.1//EN"
 "http://www.w3.org/Graphics/SVG/1.1/DTD/svg11.dtd">
<!-- Generated by graphviz version 2.43.0 (0)
 -->
<!-- Title: scippp::params::Param&lt; baseType &gt; Pages: 1 -->
<svg width="136pt" height="171pt"
 viewBox="0.00 0.00 136.00 171.00" xmlns="http://www.w3.org/2000/svg" xmlns:xlink="http://www.w3.org/1999/xlink">
<g id="graph0" class="graph" transform="scale(1 1) rotate(0) translate(4 167)">
<title>scippp::params::Param&lt; baseType &gt;</title>
<!-- Node1 -->
<g id="node1" class="node">
<title>Node1</title>
<g id="a_node1"><a xlink:title="Stores the argument type and string representation of a parameter.">
<polygon fill="#999999" stroke="#666666" points="128,-30 0,-30 0,0 128,0 128,-30"/>
<text text-anchor="start" x="8" y="-18" font-family="Helvetica,sans-Serif" font-size="10.00">scippp::params::Param</text>
<text text-anchor="middle" x="64" y="-7" font-family="Helvetica,sans-Serif" font-size="10.00">&lt; baseType &gt;</text>
</a>
</g>
</g>
<!-- Node2 -->
<g id="node2" class="node">
<title>Node2</title>
<g id="a_node2"><a xlink:title=" ">
<polygon fill="white" stroke="#666666" points="111,-96 17,-96 17,-77 111,-77 111,-96"/>
<text text-anchor="middle" x="64" y="-84" font-family="Helvetica,sans-Serif" font-size="10.00">std::string_view</text>
</a>
</g>
</g>
<!-- Node2&#45;&gt;Node1 -->
<g id="edge1" class="edge">
<title>Node2&#45;&gt;Node1</title>
<path fill="none" stroke="#9a32cd" stroke-dasharray="5,2" d="M64,-66.71C64,-55.19 64,-40.68 64,-30.14"/>
<polygon fill="#9a32cd" stroke="#9a32cd" points="60.5,-66.98 64,-76.98 67.5,-66.98 60.5,-66.98"/>
<text text-anchor="middle" x="90" y="-51" font-family="Helvetica,sans-Serif" font-size="10.00"> scipName</text>
</g>
<!-- Node3 -->
<g id="node3" class="node">
<title>Node3</title>
<g id="a_node3"><a xlink:title=" ">
<polygon fill="white" stroke="#666666" points="126.5,-163 1.5,-163 1.5,-133 126.5,-133 126.5,-163"/>
<text text-anchor="start" x="9.5" y="-151" font-family="Helvetica,sans-Serif" font-size="10.00">std::basic_string_view</text>
<text text-anchor="middle" x="64" y="-140" font-family="Helvetica,sans-Serif" font-size="10.00">&lt; Char &gt;</text>
</a>
</g>
</g>
<!-- Node3&#45;&gt;Node2 -->
<g id="edge2" class="edge">
<title>Node3&#45;&gt;Node2</title>
<path fill="none" stroke="#63b8ff" d="M64,-122.79C64,-113.36 64,-103.15 64,-96.16"/>
<polygon fill="#63b8ff" stroke="#63b8ff" points="60.5,-122.9 64,-132.9 67.5,-122.9 60.5,-122.9"/>
</g>
</g>
</svg>
